<?xml version="1.0" encoding="UTF-8"?>
<svg width="177px" height="30px" viewBox="0 0 177 30" version="1.1" xmlns="http://www.w3.org/2000/svg" xmlns:xlink="http://www.w3.org/1999/xlink">
    <!-- Generator: sketchtool 51 (57462) - http://www.bohemiancoding.com/sketch -->
    <title>CECFA6BB-9A98-444D-A504-F4DB13A20A54</title>
    <desc>Created with sketchtool.</desc>
    <defs></defs>
    <g id="Symbols" stroke="none" stroke-width="1" fill="none" fill-rule="evenodd">
        <g id="Logo">
            <g>
                <path d="M0,23.4814868 L6.60034673,23.4814868 L4.55518266,29.656805 L0,29.656805 L0,23.4814868 Z M0,11.7407107 L10.4879539,11.7407107 L8.44311627,17.916029 L0,17.916029 L0,11.7407107 Z M0,-6.52885576e-05 L14.3755611,-6.52885576e-05 L12.3307234,6.17557937 L0,6.17557937 L0,-6.52885576e-05 Z M20.8808476,-6.52885576e-05 L37.2898208,-6.52885576e-05 L37.2898208,6.17557937 L18.83601,6.17557937 L20.8808476,-6.52885576e-05 Z M14.9483702,17.9160616 L16.9932078,11.7407434 L37.2897882,11.7407434 L37.2897882,17.9160616 L14.9483702,17.9160616 Z M13.1054701,23.4814868 L37.2896576,23.4814868 L37.2896576,29.656805 L11.0606325,29.656805 L13.1054701,23.4814868 Z" id="logo-mark" fill="#FD5750"></path>
                <path d="M94.3020418,18.3244415 L97.524685,8.58306229 C98.4730013,8.58306229 99.373004,8.59220269 100.247218,8.59220269 L95.9544952,21.0189003 L92.566019,21.0189003 L88.5171491,8.58306229 L91.3444701,8.58306229 L94.3020418,18.3244415 Z M131.855073,2.33909315 L131.855073,18.6024729 L135.615694,18.6024729 L135.615694,21.0188024 L129.190647,21.0188024 L129.190647,4.58697819 L126.536668,4.58697819 L126.536668,2.33909315 L131.855073,2.33909315 Z M119.105295,10.8832108 C119.159485,10.6726552 119.721293,8.46981929 121.901604,8.46981929 L125.642965,8.46981929 L125.642965,11.1623194 L121.497468,11.1623194 C120.473417,11.1623194 119.271128,12.0215168 119.271128,13.426853 C119.271128,13.426853 119.259376,20.8113153 119.259376,21.0189329 L116.517257,21.0189329 L116.517257,8.55110354 C117.365355,8.55110354 118.140004,8.54783911 119.052738,8.54783911 L119.105295,10.8832108 Z M157.567862,13.4447094 C159.570262,13.6804011 162.593775,14.0368767 162.755691,17.1237197 C162.833711,18.5737785 162.256886,19.4806366 161.76102,19.9862965 C160.482343,21.2884768 158.451869,21.3736783 157.03674,21.3243855 C154.273075,21.2280848 151.897877,20.0737831 151.798312,20.0248167 L152.949023,17.6832426 C152.966324,17.6917301 154.811379,18.6834633 156.996261,18.8479905 C160.267217,19.0944548 160.292027,17.8063115 160.263626,17.2611521 C160.22478,16.537102 159.572221,16.3079391 157.263291,16.0360123 C155.209966,15.7941182 152.105821,15.4285023 152.031719,12.1813759 C152.007562,11.1791965 152.360447,10.2880077 153.052505,9.60508937 C153.976665,8.69137601 155.487442,8.20138538 157.198329,8.26112441 C159.813788,8.35220195 162.063958,9.04556643 162.1583,9.07461984 L161.382672,11.5663576 C161.362433,11.5601552 159.360033,10.9470957 157.107578,10.8687494 C156.156323,10.8357787 155.283742,11.0678795 154.886461,11.4605902 C154.70855,11.6355635 154.633794,11.8392638 154.639017,12.1213104 C154.657624,12.8812692 155.043153,13.1473201 157.567862,13.4447094 Z M176.095416,17.1235564 C176.17311,18.5736153 175.596612,19.4807998 175.100745,19.9864597 C173.821742,21.28864 171.791268,21.3738415 170.376465,21.3242222 C167.6128,21.2279216 165.237276,20.0736199 165.138038,20.0249799 L166.200609,17.8622965 C166.218237,17.870784 168.150778,18.6833001 170.33566,18.8478272 C173.606616,19.0942916 173.631752,17.8064748 173.603025,17.2609889 C173.564505,16.5369388 172.911946,16.3081024 170.603343,16.0361755 C168.549691,15.7942814 165.445547,15.428339 165.371118,12.1815391 C165.347287,11.1790333 165.700172,10.2881709 166.391904,9.60492615 C167.316064,8.69121279 168.826841,8.20122216 170.538381,8.26128764 C173.153187,8.35203873 175.403684,9.04540321 175.497699,9.07478306 L174.722398,11.5661944 C174.701832,11.5603185 172.70139,10.8689126 170.447303,10.8689126 C168.460246,10.8689126 167.979069,11.5025381 167.979069,12.1211472 C167.979069,12.8814324 168.382879,13.1471568 170.907587,13.4445462 C172.909661,13.6805644 175.933501,14.0367134 176.095416,17.1235564 Z M54.9137161,13.4447094 C56.9157897,13.6804011 59.9396293,14.0368767 60.1015449,17.1237197 C60.1792383,18.5737785 59.6027403,19.4806366 59.1068737,19.9862965 C57.8278709,21.2884768 55.7977232,21.3736783 54.3825937,21.3243855 C51.6189291,21.2280848 49.2434049,20.0737831 49.1438399,20.0248167 L50.2948771,17.6832426 C50.312505,17.6917301 52.1569068,18.6834633 54.3421148,18.8479905 C57.6127451,19.0944548 57.6382076,17.8063115 57.6094807,17.2611521 C57.570634,16.537102 56.9180748,16.3079391 54.609145,16.0360123 C52.5558199,15.7941182 49.4516754,15.4285023 49.3772464,12.1813759 C49.3534161,11.1791965 49.7063008,10.2880077 50.398033,9.60508937 C51.322519,8.69137601 52.8329698,8.20138538 54.5441829,8.26112441 C57.1593161,8.35220195 59.4098126,9.04556643 59.5038282,9.07461984 L58.7285266,11.5663576 C58.7079607,11.5601552 56.7062135,10.9470957 54.4534318,10.8687494 C53.5018511,10.8357787 52.6292695,11.0678795 52.2326415,11.4605902 C52.0547302,11.6355635 51.9796484,11.8392638 51.9851979,12.1213104 C52.0031522,12.8812692 52.3893341,13.1473201 54.9137161,13.4447094 Z M143.523346,8.24281097 C149.398664,8.24281097 149.398664,14.22259 149.398664,14.22259 L149.398664,15.8224861 L140.063706,15.8224861 C140.063706,17.3424037 141.390696,18.9772292 143.851095,18.9772292 C145.906705,18.9772292 148.038377,18.1464323 148.038377,18.1464323 L148.718357,20.2846325 C148.718357,20.2846325 146.09898,21.3325139 143.632052,21.3325139 C137.754776,21.3325139 137.31669,16.1068177 137.31669,14.692994 C137.31669,13.278191 138.308749,8.24281097 143.523346,8.24281097 Z M146.861877,13.5683986 C146.861877,13.5683986 146.981681,10.6144178 143.523673,10.6144178 C140.396351,10.6144178 140.032041,13.5683986 140.032041,13.5683986 L146.861877,13.5683986 Z M107.819287,8.24281097 C113.694931,8.24281097 113.694931,14.22259 113.694931,14.22259 L113.694931,15.8224861 L104.359973,15.8224861 C104.359973,17.3424037 105.687289,18.9772292 108.147688,18.9772292 C110.202972,18.9772292 112.334643,18.1464323 112.334643,18.1464323 L113.014624,20.2846325 C113.014624,20.2846325 110.395247,21.3325139 107.928319,21.3325139 C102.051043,21.3325139 101.612957,16.1068177 101.612957,14.692994 C101.612957,13.278191 102.605016,8.24281097 107.819287,8.24281097 Z M111.158144,13.5683986 C111.158144,13.5683986 111.277948,10.6144178 107.81994,10.6144178 C104.692618,10.6144178 104.328308,13.5683986 104.328308,13.5683986 L111.158144,13.5683986 Z M68.3845736,8.24281097 C74.2602174,8.24281097 74.2602174,14.22259 74.2602174,14.22259 L74.2602174,15.8224861 L64.924933,15.8224861 C64.924933,17.3424037 66.2522494,18.9772292 68.7126486,18.9772292 C70.7679324,18.9772292 72.8996038,18.1464323 72.8996038,18.1464323 L73.5795842,20.2846325 C73.5795842,20.2846325 70.9602072,21.3325139 68.4936055,21.3325139 C62.6163296,21.3325139 62.1775905,16.1068177 62.1775905,14.692994 C62.1775905,13.278191 63.170303,8.24281097 68.3845736,8.24281097 Z M71.7234305,13.5683986 C71.7234305,13.5683986 71.843235,10.6144178 68.3852265,10.6144178 C65.2579046,10.6144178 64.8935945,13.5683986 64.8935945,13.5683986 L71.7234305,13.5683986 Z M79.5698746,10.8832108 C79.6240641,10.6726552 80.1855457,8.46981929 82.3661835,8.46981929 L86.1075443,8.46981929 L86.1075443,11.1623194 L81.9620474,11.1623194 C80.9379963,11.1623194 79.7357076,12.0215168 79.7357076,13.426853 C79.7357076,13.426853 79.7236292,20.8113153 79.7236292,21.0189329 L76.9818362,21.0189329 L76.9818362,8.55110354 C77.8296081,8.55110354 78.6045833,8.54783911 79.5173173,8.54783911 L79.5698746,10.8832108 Z" id="logotype" fill="#FFFFFF"></path>
            </g>
        </g>
    </g>
</svg>